<?xml version="1.0" encoding="utf-8"?>
<!-- Generator: Adobe Illustrator 26.0.1, SVG Export Plug-In . SVG Version: 6.00 Build 0)  -->
<svg version="1.1" id="Layer_1" xmlns="http://www.w3.org/2000/svg" xmlns:xlink="http://www.w3.org/1999/xlink" x="0px" y="0px"
	 viewBox="0 0 433.2 91" style="enable-background:new 0 0 433.2 91;" xml:space="preserve">
<style type="text/css">
	.st0{fill:#004B86;}
	.st1{fill:#449C3F;}
</style>
<g>
	<g>
		<path class="st0" d="M77,23.8c-8.3-11.2-19.5-16.7-33.5-16c-8.1,0.4-15.2,3.3-21.4,8.5c-10,8.5-14.5,19.4-13.7,32.5
			c0.1,1,0.4,1.3,1.3,1.3c4,0,8,0,12,0c0.8,0,1.2-0.3,1.5-1.1c1.8-5.2,3.6-10.4,5.5-15.5c1.3-3.6,2.6-7.1,4.1-10.9
			c4.5,13.3,8.9,26.2,13.4,39.5c4.9-14.8,9.7-29.3,14.6-44.1c0.3,0.8,0.6,1.3,0.8,1.8c3.2,8.2,6.3,16.5,9.5,24.7
			c1.1,2.9,1.1,2.9,4.2,2.9c2.8,0,5.5,0,8.4,0C84.6,40.3,81.9,30.4,77,23.8z"/>
		<path class="st0" d="M71,51.6c-1.1,0-1.7-0.2-2-1.3c-1.5-4.1-3.1-8.1-4.6-12.2c-1-2.6-2-5.2-3.1-8c-5.1,15.4-10.1,30.5-15.1,45.6
			c-0.1,0-0.2,0-0.3,0c-4.4-13.7-8.8-27.4-13.3-41c-0.1,0-0.2,0-0.3,0c-2.2,6.5-4.4,13.1-6.7,19.7c-5.4,0-10.7,0-16,0
			c3.3,16.1,20.1,32.1,42.2,28.7c10.2-1.5,18.4-6.6,24.6-14.7c3.7-4.9,6.1-10.4,7-16.7C79.1,51.6,75,51.6,71,51.6z"/>
	</g>
	<g>
		<path class="st1" d="M64.1,7.9C38.2-3.7,13.2,11.5,6.3,33.5c-6.8,21.6,6.4,50.2,35.9,53.8c-0.3,0.9-0.5,1.8-0.9,2.6
			c-0.2,0.3-0.8,0.7-1.1,0.6c-4.5-0.6-8.9-1.6-12.9-3.8c-2.9-1.6-5.8-3.2-8.4-5.1c-7-5.2-12-12-15-20.2C1.4,55,0.5,48.5,1,41.9
			C1.6,35.3,3.5,29,6.8,23.2c5-8.7,12.1-15,21.1-19.2C34.6,0.9,41.7,0,49.1,0.4C54.2,0.7,59.2,1.9,63.9,4c1.1,0.5,1.2,1.1,0.8,2
			C64.5,6.6,64.3,7.2,64.1,7.9z"/>
		<g>
			<path class="st1" d="M139.2,33.3c-2.4-0.8-4.6-1.7-6.9-2.3c-7.2-1.9-13.9-1-19.5,4.4c-8.9,8.7-5.8,23.6,5.9,28.1
				c6.3,2.4,12.3,1.8,18.3-1c0.6-0.3,1.2-0.6,2.1-1c0,2.2,0,4.2,0,6.2c0,0.3-0.5,0.6-0.9,0.8c-7.9,3.6-15.8,3.9-23.6-0.1
				c-6.5-3.3-11.1-8.5-12.6-15.9c-2-9.4,1.1-17.2,8.6-23.2c6.3-5,13.5-6.1,21.3-4.5c2,0.4,4,1.1,6,1.7c0.9,0.3,1.4,0.8,1.3,1.8
				C139.2,29.9,139.2,31.5,139.2,33.3z"/>
			<path class="st1" d="M205,56.5c0.2,4.4,3.1,7.3,7.1,8.3c3.7,0.9,7.1,0.1,9.8-2.6c0.9-0.9,1.6-1.2,2.6-0.2
				c0.8,0.8,1.7,1.4,2.9,2.2c-0.8,0.9-1.6,1.7-2.4,2.4c-5.6,4.8-14.2,5.2-19.7,0.7c-5.2-4.2-6.8-9.8-5.1-16
				c1.6-5.8,5.6-9.5,11.6-10.7c7.4-1.5,15.2,3.7,16.8,11.3c0.2,1,0.3,2.1,0.5,3.1c0.2,1.1-0.3,1.5-1.4,1.4c-5.3,0-10.7,0-16,0
				c-1.8,0-3.5,0-5.3,0C205.9,56.4,205.5,56.5,205,56.5z M222.7,51.7c-0.8-3.3-4.8-6.2-8.3-6.1c-4.3,0.2-8.2,2.9-8.6,6.1
				C211.4,51.7,217,51.7,222.7,51.7z"/>
			<path class="st1" d="M145.2,51c0-2.8,0-5.6,0-8.3c0-1.1,0.4-1.6,1.5-1.5c0.8,0.1,1.7,0,2.5,0c1.3-0.1,1.8,0.3,1.7,1.7
				c-0.1,4.5-0.1,9,0,13.5c0,1.4,0.1,2.9,0.5,4.2c0.8,2.9,2.8,4.3,5.7,4.3c3.1,0,5.3-1.5,6.1-4.3c0.3-1.1,0.5-2.3,0.5-3.4
				c0.1-4.8,0.1-9.6,0-14.4c0-1.2,0.4-1.6,1.5-1.5c1,0,2,0,3.1,0c0.8,0,1.2,0.3,1.2,1.1c0,5.8,0.1,11.7-0.1,17.5
				c-0.2,5.5-5,10-10.5,10.5c-6.1,0.5-10.6-1.8-12.7-6.8c-0.6-1.4-0.9-3.1-1-4.7C145,56.2,145.1,53.6,145.2,51
				C145.1,51,145.1,51,145.2,51z"/>
			<path class="st1" d="M183.6,45.9c1-1.2,1.7-2.1,2.6-2.9c2.1-1.9,4.5-2.8,7.4-2.5c1.1,0.1,1.5,0.5,1.1,1.6c-0.4,1.1-0.7,2.3-1,3.4
				c-0.2,0.8-0.7,0.9-1.5,0.8c-3.7-0.4-6.7,1.3-7.9,4.5c-0.4,1.1-0.6,2.4-0.6,3.7c-0.1,4.5-0.1,9,0,13.5c0,1.3-0.2,1.9-1.7,1.7
				c-0.9-0.2-1.9-0.1-2.9,0c-0.8,0-1.1-0.3-1.1-1.2c0-8.7,0-17.4,0-26.1c0-0.7,0.2-1.1,1-1.1c1.2,0,2.4,0,3.6,0c0.8,0,1.1,0.4,1,1.1
				C183.6,43.4,183.6,44.5,183.6,45.9z"/>
		</g>
	</g>
	<g>
		<g>
			<path class="st0" d="M290.5,69.6c-2,0-3.9,0-5.8,0c-1.2-4.6-2.5-9.2-3.6-13.8c-1.1-4.6-2.1-9.2-3.2-13.9c-0.2,0-0.3-0.1-0.5-0.1
				c-4.1,9.7-8.2,19.5-12.5,29.5c-4.2-10-8.3-19.8-12.6-29.9c-0.2,0.6-0.4,0.9-0.5,1.3c-2.2,8.4-4.5,16.9-6.6,25.3
				c-0.3,1.3-0.9,1.8-2.3,1.7c-1.3-0.1-2.6,0-4.1,0c4-15.3,8-30.5,12.1-46.1c4.7,11.1,9.2,21.9,13.9,33c4.6-11,9.1-21.8,13.7-32.8
				C282.6,39.2,286.5,54.4,290.5,69.6z"/>
			<path class="st0" d="M324.9,56.4c-8.2,0-16.2,0-24.1,0c-0.4,2.5,1.7,5.8,4.4,7.2c4.6,2.5,8.7,1.7,13.9-2.8c1.4,1,2.8,2.1,4.2,3.2
				c-2.5,3.4-5.8,5.3-9.8,6.1c-6.6,1.3-12.6-1.1-16.2-6.6c-3.7-5.5-3-13.5,1.6-18.4c4.9-5.3,12.3-6.6,18.3-3.1
				C322.5,45.2,324.9,50,324.9,56.4z M318.5,51.6c-1.5-4-5.1-6.1-9.3-5.8c-3.5,0.2-6.9,2.4-7.9,5.8C307,51.6,312.7,51.6,318.5,51.6z
				"/>
			<path class="st0" d="M417.4,41c-3,3.8-5.7,7.3-8.4,10.8c-1.6,2.1-1.6,2.1,0,4.2c3.3,4.3,6.6,8.6,9.9,12.9
				c0.1,0.2,0.2,0.4,0.5,0.8c-2.3,0-4.5,0-6.6,0c-0.4,0-0.8-0.5-1.1-0.9c-2.2-2.9-4.3-5.8-6.4-8.7c-0.3-0.4-0.6-0.8-1.1-1.3
				c-2.2,2.8-4.5,5.5-6.5,8.4c-1.3,1.8-2.7,3-5.1,2.6c-1.2-0.2-2.5,0-4,0c1.4-1.8,2.5-3.4,3.7-4.9c2.5-3.3,5-6.6,7.6-9.9
				c0.6-0.8,0.5-1.3-0.1-2c-3.1-3.8-6.1-7.7-9.3-11.8c1.9,0,3.5,0.1,5,0c1.6-0.1,2.7,0.3,3.6,1.7c1.5,2.2,3.3,4.2,5.1,6.5
				c1-1.3,1.9-2.6,2.8-3.8c0.2-0.3,0.3-0.6,0.5-0.8C410,41,410,41,414.3,41C415.2,41,416.1,41,417.4,41z"/>
			<path class="st0" d="M333.8,46.5c-1.3,0-2.4,0-3.6,0c-0.8,0-1.2-0.2-1.2-1.1c0-1.4,0-2.8,0-4.4c1.6,0,3.1,0,4.7,0
				c0-2.8,0-5.4,0-8.2c2,0,4,0,6,0c0,2.7,0,5.4,0,8.2c2,0,3.8,0,5.7,0c0,1.9,0,3.6,0,5.5c-1.5,0-2.9,0.1-4.3,0
				c-1-0.1-1.3,0.3-1.3,1.3c0,6.7,0,13.4,0,20.1c0,0.5,0,1,0,1.7c-2,0-4,0-6,0C333.8,61.9,333.8,54.3,333.8,46.5z"/>
			<path class="st0" d="M352,41.1c1.9,0,3.7,0,5.6,0c0,1.4,0,2.9,0,4.3c2.9-3.8,6.4-5.8,11.6-4.7c-0.6,1.8-1.1,3.6-1.7,5.4
				c-0.1,0.2-0.9,0.3-1.3,0.3c-2.6-0.1-5,0.5-6.7,2.6c-1.1,1.3-1.6,2.9-1.6,4.6c0,4.8-0.1,9.6,0.1,14.4c0,1.5-0.5,1.8-1.8,1.7
				c-1.3-0.1-2.7,0-4.1,0C352,60.1,352,50.7,352,41.1z"/>
			<path class="st0" d="M381.3,69.7c-1.8,0-3.4,0-5.1,0c-0.8,0-0.8-0.5-0.8-1.1c0-2.5,0-4.9,0-7.4c0-6.2,0-12.5,0-18.7
				c0-0.4,0-0.8,0-1.3c2,0,3.9,0,5.9,0C381.3,50.7,381.3,60.1,381.3,69.7z"/>
			<path class="st0" d="M378.3,36.1c-2.6,0-4.6-2-4.6-4.7c0-2.5,2.1-4.5,4.7-4.5c2.5,0,4.6,2.1,4.6,4.6
				C382.9,34.1,380.9,36.1,378.3,36.1z"/>
		</g>
		<g>
			<path class="st0" d="M426.2,44.1c0,1.7-1.3,3-3,3c-1.7,0-3-1.3-3-3c0-1.6,1.4-3,3-3C424.9,41.1,426.2,42.4,426.2,44.1z
				 M420.9,44.1c0,1.3,1,2.4,2.3,2.4c1.3,0,2.3-1,2.3-2.3c0-1.3-1-2.4-2.3-2.4C421.9,41.7,420.9,42.8,420.9,44.1z M422.7,45.6H422
				v-3c0.3-0.1,0.6-0.1,1.1-0.1c0.6,0,0.8,0.1,1,0.2c0.2,0.1,0.3,0.4,0.3,0.6c0,0.3-0.3,0.6-0.6,0.7v0c0.3,0.1,0.5,0.3,0.5,0.7
				c0.1,0.5,0.1,0.6,0.2,0.7h-0.7c-0.1-0.1-0.1-0.4-0.2-0.7c-0.1-0.3-0.2-0.5-0.6-0.5h-0.3V45.6z M422.7,44h0.3
				c0.4,0,0.7-0.1,0.7-0.4c0-0.3-0.2-0.4-0.6-0.4c-0.2,0-0.3,0-0.4,0V44z"/>
		</g>
	</g>
</g>
</svg>
