<svg xmlns="http://www.w3.org/2000/svg" viewBox="0 0 124.2 24.76"><defs><style>.cls-1{fill:#343c41}.cls-2{fill:url(#linear-gradient)}.cls-3{fill:url(#linear-gradient-2)}.cls-4{fill:url(#linear-gradient-3)}.cls-5{fill:url(#linear-gradient-4)}</style><linearGradient id="linear-gradient" y1=".02" x2=".02" y2=".02" gradientUnits="userSpaceOnUse"><stop offset="0" stop-color="#d8df25"/><stop offset=".06" stop-color="#d8df25"/><stop offset=".46" stop-color="#d8df25"/><stop offset=".76" stop-color="#70ab3b"/><stop offset=".99" stop-color="#3b6623"/></linearGradient><linearGradient id="linear-gradient-2" x1="5.69" y1="10.67" x2="32.17" y2="10.67" gradientUnits="userSpaceOnUse"><stop offset=".26" stop-color="#91eb00"/><stop offset=".54" stop-color="#91eb00"/><stop offset=".79" stop-color="#3db724"/><stop offset=".99" stop-color="#006423"/></linearGradient><linearGradient id="linear-gradient-3" x1=".01" y1="14.81" x2="15.88" y2="14.81" gradientUnits="userSpaceOnUse"><stop offset=".46" stop-color="#91eb00"/><stop offset=".76" stop-color="#3db724"/><stop offset=".99" stop-color="#006423"/></linearGradient><linearGradient id="linear-gradient-4" x1="32.92" y1="-22.19" x2="32.92" y2="24.63" gradientUnits="userSpaceOnUse"><stop offset=".73" stop-color="#91eb00"/><stop offset=".77" stop-color="#7edf08"/><stop offset=".86" stop-color="#4fc21c"/><stop offset=".91" stop-color="#3db724"/><stop offset=".99" stop-color="#006423"/></linearGradient></defs><title>logo</title><g id="Layer_2" data-name="Layer 2"><g id="_24_Grid_Col" data-name="24 Grid Col"><path id="_Compound_Path_" data-name="&lt;Compound Path&gt;" class="cls-1" d="M51 9h1.11l3.64 4.7V9H57v6.79h-1l-3.75-4.83v4.83H51z"/><path id="_Compound_Path_2" data-name="&lt;Compound Path&gt;" class="cls-1" d="M60.64 9h5v1.07h-3.81v1.77h3.41v1.07h-3.41v1.82h3.89v1.07h-5.08z"/><path id="_Compound_Path_3" data-name="&lt;Compound Path&gt;" class="cls-1" d="M69 12.84V8.93h1.19v3.86c0 1.26.65 1.94 1.72 1.94s1.71-.64 1.71-1.89V8.93h1.19v3.85a2.71 2.71 0 0 1-2.92 3A2.68 2.68 0 0 1 69 12.84z"/><path id="_Compound_Path_4" data-name="&lt;Compound Path&gt;" class="cls-1" d="M78.37 9h3a2.74 2.74 0 0 1 2 .68 2.05 2.05 0 0 1 .56 1.47 2 2 0 0 1-1.62 2.06l1.83 2.57h-1.42l-1.67-2.37h-1.49v2.37h-1.19zm2.94 3.37c.85 0 1.4-.45 1.4-1.14 0-.73-.52-1.13-1.41-1.13h-1.74v2.28z"/><path id="_Compound_Path_5" data-name="&lt;Compound Path&gt;" class="cls-1" d="M87 12.4a3.55 3.55 0 0 1 7.1 0 3.55 3.55 0 0 1-7.1 0zm5.85 0a2.33 2.33 0 0 0-2.29-2.4 2.29 2.29 0 0 0-2.29 2.4 2.33 2.33 0 0 0 2.31 2.42 2.29 2.29 0 0 0 2.29-2.42z"/><path id="_Compound_Path_6" data-name="&lt;Compound Path&gt;" class="cls-1" d="M97.51 9h1.27l2.07 3.21L102.91 9h1.27v6.79H103v-4.88l-2.14 3.2-2.12-3.18v4.85h-1.23z"/><path id="_Compound_Path_7" data-name="&lt;Compound Path&gt;" class="cls-1" d="M107.57 12.4a3.55 3.55 0 0 1 7.1 0 3.55 3.55 0 0 1-7.1 0zm5.85 0a2.33 2.33 0 0 0-2.31-2.4 2.29 2.29 0 0 0-2.29 2.4 2.33 2.33 0 0 0 2.31 2.42 2.29 2.29 0 0 0 2.29-2.42z"/><path id="_Compound_Path_8" data-name="&lt;Compound Path&gt;" class="cls-1" d="M118.06 9h2.53a3.39 3.39 0 0 1 3.61 3.38 3.4 3.4 0 0 1-3.61 3.4h-2.53zm2.53 5.71A2.21 2.21 0 0 0 123 12.4a2.23 2.23 0 0 0-2.36-2.31h-1.34v4.62z"/><path class="cls-3" d="M24 20.17c4.11 2.54 6.81-.24 7.63-1.83l.52-1c-.93 1.5-1.63 1.81-2.25 1.79s-1.23-.32-2.25-1.8a33.73 33.73 0 0 1-2.82-6.06c-.72-1.8-1.68-4-2.55-5.7a21.28 21.28 0 0 0-1.47-2.33A7.93 7.93 0 0 0 14.68.15c-2.68 0-4.95 1.42-6.8 4.21-.19.29-.38.59-.56.9l-.16.29-.37.68-.17.33-.35.73-.13.28q-.23.5-.45 1c5.23-5.09 8.45-4 10.19-2.39a5.67 5.67 0 0 1 .71.79l.11.15.23.32a29.57 29.57 0 0 1 2.82 6.06c.33.89.77 1.93 1.25 3a8.63 8.63 0 0 0 3 3.67z"/><path class="cls-4" d="M5.69 8.59c-.11.26-.73 1.76-1.17 2.85a35.92 35.92 0 0 1-2.81 6.06A4 4 0 0 1 0 19.15v5.61a8.74 8.74 0 0 0 6.27-4.22 39.47 39.47 0 0 0 3.35-7.07 41.14 41.14 0 0 1 2.8-6c.93-1.5 1.63-1.81 2.25-1.79a1.8 1.8 0 0 1 1.2.54C14.14 4.57 10.92 3.5 5.69 8.59z"/><path class="cls-5" d="M44.85 0a8.69 8.69 0 0 0-6.53 4.25A39.47 39.47 0 0 0 35 11.32a41.14 41.14 0 0 1-2.8 6l-.52 1c-.82 1.59-3.52 4.37-7.63 1.83a8.63 8.63 0 0 1-3-3.69 31.58 31.58 0 0 0 2.78 5.07 7.93 7.93 0 0 0 6.14 3.09c2.66 0 4.95-1.42 6.8-4.21a39.48 39.48 0 0 0 3.35-7.07 35.92 35.92 0 0 1 2.78-6.05c.9-1.36 1.57-1.66 2-1.73z"/></g></g></svg>